<?xml version="1.0" encoding="UTF-8"?>
<svg xmlns="http://www.w3.org/2000/svg" xmlns:xlink="http://www.w3.org/1999/xlink" width="16px" height="16px" viewBox="0 0 16 16" version="1.1">
<g id="surface1">
<path style=" stroke:none;fill-rule:evenodd;fill:rgb(70.980392%,62.352941%,35.686275%);fill-opacity:1;" d="M 8 16 C 12.421875 16 16 12.421875 16 8 C 16 3.578125 12.421875 0 8 0 C 3.578125 0 0 3.578125 0 8 C 0 12.421875 3.578125 16 8 16 Z M 8 15.113281 C 11.925781 15.113281 15.113281 11.925781 15.113281 8 C 15.113281 4.074219 11.925781 0.886719 8 0.886719 C 4.074219 0.886719 0.886719 4.074219 0.886719 8 C 0.886719 11.925781 4.074219 15.113281 8 15.113281 Z M 8 15.113281 "/>
<path style=" stroke:none;fill-rule:nonzero;fill:rgb(70.980392%,62.352941%,35.686275%);fill-opacity:1;" d="M 13.335938 8 C 13.335938 10.941406 10.941406 13.335938 8 13.335938 C 5.058594 13.335938 2.664062 10.941406 2.664062 8 C 2.664062 5.058594 5.058594 2.664062 8 2.664062 C 10.941406 2.664062 13.335938 5.058594 13.335938 8 Z M 13.335938 8 "/>
</g>
</svg>
