<?xml version="1.0" encoding="UTF-8"?>
<svg xmlns="http://www.w3.org/2000/svg" xmlns:xlink="http://www.w3.org/1999/xlink" width="23px" height="23px" viewBox="0 0 23 23" version="1.1">
<g id="surface1">
<path style=" stroke:none;fill-rule:evenodd;fill:rgb(70.980392%,62.352941%,35.686275%);fill-opacity:1;" d="M 11.5 23 C 17.855469 23 23 17.855469 23 11.5 C 23 5.144531 17.855469 0 11.5 0 C 5.144531 0 0 5.144531 0 11.5 C 0 17.855469 5.144531 23 11.5 23 Z M 11.5 21.726562 C 17.144531 21.726562 21.726562 17.144531 21.726562 11.5 C 21.726562 5.855469 17.144531 1.273438 11.5 1.273438 C 5.855469 1.273438 1.273438 5.855469 1.273438 11.5 C 1.273438 17.144531 5.855469 21.726562 11.5 21.726562 Z M 11.5 21.726562 "/>
<path style=" stroke:none;fill-rule:nonzero;fill:rgb(70.980392%,62.352941%,35.686275%);fill-opacity:1;" d="M 19.167969 11.5 C 19.167969 15.730469 15.730469 19.167969 11.5 19.167969 C 7.269531 19.167969 3.832031 15.730469 3.832031 11.5 C 3.832031 7.269531 7.269531 3.832031 11.5 3.832031 C 15.730469 3.832031 19.167969 7.269531 19.167969 11.5 Z M 19.167969 11.5 "/>
</g>
</svg>
